solid CoffeeIdeas
facet normal -0.9989866906227896 0.045006576836358746 0.0
  outer loop
    vertex -18.730399367210705 7.148720506153021 1.0
    vertex -18.824391960799648 5.062417645264966 0.0
    vertex -18.824391960799648 5.062417645264966 1.0
  endloop
endfacet
facet normal -0.9989866906227896 0.045006576836358746 0.0
  outer loop
    vertex -18.824391960799648 5.062417645264966 0.0
    vertex -18.730399367210705 7.148720506153021 1.0
    vertex -18.730399367210705 7.148720506153021 0.0
  endloop
endfacet
facet normal 0.6745658075755001 -0.738214718933464 0.0
  outer loop
    vertex -6.730637998201329 0.6878044474228789 1.0
    vertex -8.272339699052223 -0.7209716528119084 0.0
    vertex -6.730637998201329 0.6878044474228789 0.0
  endloop
endfacet
facet normal 0.6745658075755001 -0.738214718933464 0.0
  outer loop
    vertex -8.272339699052223 -0.7209716528119084 0.0
    vertex -6.730637998201329 0.6878044474228789 1.0
    vertex -8.272339699052223 -0.7209716528119084 1.0
  endloop
endfacet
facet normal -0.8876511405400607 -0.4605165064337318 -0.0
  outer loop
    vertex -20.373180301422973 3.112889910825739 1.0
    vertex -19.41142884479456 1.2591023365140601 0.0
    vertex -19.41142884479456 1.2591023365140601 1.0
  endloop
endfacet
facet normal -0.8876511405400607 -0.4605165064337318 -0.0
  outer loop
    vertex -19.41142884479456 1.2591023365140601 0.0
    vertex -20.373180301422973 3.112889910825739 1.0
    vertex -20.373180301422973 3.112889910825739 0.0
  endloop
endfacet
facet normal 0.04500657683635875 0.9989866906227896 -0.0
  outer loop
    vertex -20.822365342045227 5.152430798937682 1.0
    vertex -18.824391960799648 5.062417645264966 0.0
    vertex -20.822365342045227 5.152430798937682 0.0
  endloop
endfacet
facet normal 0.04500657683635875 0.9989866906227896 -0.0
  outer loop
    vertex -18.824391960799648 5.062417645264966 0.0
    vertex -20.822365342045227 5.152430798937682 1.0
    vertex -18.824391960799648 5.062417645264966 1.0
  endloop
endfacet
facet normal -0.9765956038317191 -0.21508376641801727 0.0
  outer loop
    vertex -20.822365342045227 5.152430798937682 1.0
    vertex -20.373180301422973 3.112889910825739 0.0
    vertex -20.373180301422973 3.112889910825739 1.0
  endloop
endfacet
facet normal -0.9765956038317191 -0.21508376641801727 0.0
  outer loop
    vertex -20.373180301422973 3.112889910825739 0.0
    vertex -20.822365342045227 5.152430798937682 1.0
    vertex -20.822365342045227 5.152430798937682 0.0
  endloop
endfacet
facet normal -0.6745658075754991 0.7382147189334649 0.0
  outer loop
    vertex -18.973056556319484 10.989415382021615 1.0
    vertex -17.43135485546859 12.398191482256399 0.0
    vertex -18.973056556319484 10.989415382021615 0.0
  endloop
endfacet
facet normal -0.6745658075754991 0.7382147189334649 0.0
  outer loop
    vertex -17.43135485546859 12.398191482256399 0.0
    vertex -18.973056556319484 10.989415382021615 1.0
    vertex -17.43135485546859 12.398191482256399 1.0
  endloop
endfacet
facet normal -0.04500657683635875 -0.9989866906227896 -0.0
  outer loop
    vertex -18.730399367210705 7.148720506153021 1.0
    vertex -20.728372748456284 7.238733659825738 0.0
    vertex -18.730399367210705 7.148720506153021 0.0
  endloop
endfacet
facet normal -0.04500657683635875 -0.9989866906227896 -0.0
  outer loop
    vertex -20.728372748456284 7.238733659825738 0.0
    vertex -18.730399367210705 7.148720506153021 1.0
    vertex -20.728372748456284 7.238733659825738 1.0
  endloop
endfacet
facet normal 0.9765956038317194 0.21508376641801602 0.0
  outer loop
    vertex -5.330514253097838 8.564329918618752 0.0
    vertex -4.8813292124755865 6.524789030506805 1.0
    vertex -4.8813292124755865 6.524789030506805 0.0
  endloop
endfacet
facet normal 0.9765956038317194 0.21508376641801602 0.0
  outer loop
    vertex -4.8813292124755865 6.524789030506805 1.0
    vertex -5.330514253097838 8.564329918618752 0.0
    vertex -5.330514253097838 8.564329918618752 1.0
  endloop
endfacet
facet normal 0.21508376641801735 -0.9765956038317191 0.0
  outer loop
    vertex -10.1261272733639 -1.6827231094403226 1.0
    vertex -12.165668161475843 -2.131908150062576 0.0
    vertex -10.1261272733639 -1.6827231094403226 0.0
  endloop
endfacet
facet normal 0.21508376641801735 -0.9765956038317191 0.0
  outer loop
    vertex -12.165668161475843 -2.131908150062576 0.0
    vertex -10.1261272733639 -1.6827231094403226 1.0
    vertex -12.165668161475843 -2.131908150062576 1.0
  endloop
endfacet
facet normal 0.9532984853514801 -0.30202979625622 0.0
  outer loop
    vertex -4.975321806064532 4.438486169618752 0.0
    vertex -5.60608659394169 2.4475994281456104 1.0
    vertex -5.60608659394169 2.4475994281456104 0.0
  endloop
endfacet
facet normal 0.9532984853514801 -0.30202979625622 0.0
  outer loop
    vertex -5.60608659394169 2.4475994281456104 1.0
    vertex -4.975321806064532 4.438486169618752 0.0
    vertex -4.975321806064532 4.438486169618752 1.0
  endloop
endfacet
facet normal 0.30202979625621934 0.9532984853514803 0.0
  outer loop
    vertex -11.451723532156912 13.71513538591812 1.0
    vertex -9.460836790683773 13.084370598040964 0.0
    vertex -11.451723532156912 13.71513538591812 0.0
  endloop
endfacet
facet normal 0.30202979625621934 0.9532984853514803 0.0
  outer loop
    vertex -9.460836790683773 13.084370598040964 0.0
    vertex -11.451723532156912 13.71513538591812 1.0
    vertex -9.460836790683773 13.084370598040964 1.0
  endloop
endfacet
facet normal 0.045006576836358794 0.9989866906227896 0.0
  outer loop
    vertex -13.538026393044966 13.809127979507066 1.0
    vertex -11.451723532156912 13.71513538591812 0.0
    vertex -13.538026393044966 13.809127979507066 0.0
  endloop
endfacet
facet normal 0.045006576836358794 0.9989866906227896 0.0
  outer loop
    vertex -11.451723532156912 13.71513538591812 0.0
    vertex -13.538026393044966 13.809127979507066 1.0
    vertex -11.451723532156912 13.71513538591812 1.0
  endloop
endfacet
facet normal 0.5384701841890577 0.8426445637037021 0.0
  outer loop
    vertex -9.460836790683773 13.084370598040964 1.0
    vertex -7.7010418099610325 11.95981919378132 0.0
    vertex -9.460836790683773 13.084370598040964 0.0
  endloop
endfacet
facet normal 0.5384701841890577 0.8426445637037021 0.0
  outer loop
    vertex -7.7010418099610325 11.95981919378132 0.0
    vertex -9.460836790683773 13.084370598040964 1.0
    vertex -7.7010418099610325 11.95981919378132 1.0
  endloop
endfacet
facet normal -0.46051650643373265 0.8876511405400602 0.0
  outer loop
    vertex -17.43135485546859 12.398191482256399 1.0
    vertex -15.577567281156913 13.359942938884815 0.0
    vertex -17.43135485546859 12.398191482256399 0.0
  endloop
endfacet
facet normal -0.46051650643373265 0.8876511405400602 0.0
  outer loop
    vertex -15.577567281156913 13.359942938884815 0.0
    vertex -17.43135485546859 12.398191482256399 1.0
    vertex -15.577567281156913 13.359942938884815 1.0
  endloop
endfacet
facet normal -0.30202979625622 -0.9532984853514801 -0.0
  outer loop
    vertex -14.251971022363898 -2.03791555647363 1.0
    vertex -16.24285776383704 -1.407150768596472 0.0
    vertex -14.251971022363898 -2.03791555647363 0.0
  endloop
endfacet
facet normal -0.30202979625622 -0.9532984853514801 -0.0
  outer loop
    vertex -16.24285776383704 -1.407150768596472 0.0
    vertex -14.251971022363898 -2.03791555647363 1.0
    vertex -16.24285776383704 -1.407150768596472 1.0
  endloop
endfacet
facet normal 0.738214718933465 0.6745658075754991 0.0
  outer loop
    vertex -7.7010418099610325 11.95981919378132 0.0
    vertex -6.2922657097262515 10.41811749293043 1.0
    vertex -6.2922657097262515 10.41811749293043 0.0
  endloop
endfacet
facet normal 0.738214718933465 0.6745658075754991 0.0
  outer loop
    vertex -6.2922657097262515 10.41811749293043 1.0
    vertex -7.7010418099610325 11.95981919378132 0.0
    vertex -7.7010418099610325 11.95981919378132 1.0
  endloop
endfacet
facet normal -0.7382147189334639 -0.6745658075755003 -0.0
  outer loop
    vertex -19.41142884479456 1.2591023365140601 1.0
    vertex -18.002652744559775 -0.2825993643368303 0.0
    vertex -18.002652744559775 -0.2825993643368303 1.0
  endloop
endfacet
facet normal -0.7382147189334639 -0.6745658075755003 -0.0
  outer loop
    vertex -18.002652744559775 -0.2825993643368303 0.0
    vertex -19.41142884479456 1.2591023365140601 1.0
    vertex -19.41142884479456 1.2591023365140601 0.0
  endloop
endfacet
facet normal 0.9989866906227896 -0.045006576836358794 0.0
  outer loop
    vertex -4.8813292124755865 6.524789030506805 0.0
    vertex -4.975321806064532 4.438486169618752 1.0
    vertex -4.975321806064532 4.438486169618752 0.0
  endloop
endfacet
facet normal 0.9989866906227896 -0.045006576836358794 0.0
  outer loop
    vertex -4.975321806064532 4.438486169618752 1.0
    vertex -4.8813292124755865 6.524789030506805 0.0
    vertex -4.8813292124755865 6.524789030506805 1.0
  endloop
endfacet
facet normal -0.5384701841890579 -0.8426445637037019 -0.0
  outer loop
    vertex -16.24285776383704 -1.407150768596472 1.0
    vertex -18.002652744559775 -0.2825993643368303 0.0
    vertex -16.24285776383704 -1.407150768596472 0.0
  endloop
endfacet
facet normal -0.5384701841890579 -0.8426445637037019 -0.0
  outer loop
    vertex -18.002652744559775 -0.2825993643368303 0.0
    vertex -16.24285776383704 -1.407150768596472 1.0
    vertex -18.002652744559775 -0.2825993643368303 1.0
  endloop
endfacet
facet normal 0.4605165064337321 -0.8876511405400607 0.0
  outer loop
    vertex -8.272339699052223 -0.7209716528119084 1.0
    vertex -10.1261272733639 -1.6827231094403226 0.0
    vertex -8.272339699052223 -0.7209716528119084 0.0
  endloop
endfacet
facet normal 0.4605165064337321 -0.8876511405400607 0.0
  outer loop
    vertex -10.1261272733639 -1.6827231094403226 0.0
    vertex -8.272339699052223 -0.7209716528119084 1.0
    vertex -10.1261272733639 -1.6827231094403226 1.0
  endloop
endfacet
facet normal -0.0 -0.0 1.0
  outer loop
    vertex -20.373180301422973 3.112889910825739 1.0
    vertex -18.824391960799648 5.062417645264966 1.0
    vertex -20.822365342045227 5.152430798937682 1.0
  endloop
endfacet
facet normal -0.0 -0.0 1.0
  outer loop
    vertex -18.824391960799648 5.062417645264966 1.0
    vertex -20.373180301422973 3.112889910825739 1.0
    vertex -19.41142884479456 1.2591023365140601 1.0
  endloop
endfacet
facet normal -0.0 -0.0 1.0
  outer loop
    vertex -18.824391960799648 5.062417645264966 1.0
    vertex -19.41142884479456 1.2591023365140601 1.0
    vertex -18.002652744559775 -0.2825993643368303 1.0
  endloop
endfacet
facet normal -0.0 -0.0 1.0
  outer loop
    vertex -18.824391960799648 5.062417645264966 1.0
    vertex -18.002652744559775 -0.2825993643368303 1.0
    vertex -18.730399367210705 7.148720506153021 1.0
  endloop
endfacet
facet normal -0.0 -0.0 1.0
  outer loop
    vertex -18.730399367210705 7.148720506153021 1.0
    vertex -20.097607960579126 9.22962040129888 1.0
    vertex -20.728372748456284 7.238733659825738 1.0
  endloop
endfacet
facet normal -0.0 -0.0 1.0
  outer loop
    vertex -20.097607960579126 9.22962040129888 1.0
    vertex -18.730399367210705 7.148720506153021 1.0
    vertex -18.973056556319484 10.989415382021615 1.0
  endloop
endfacet
facet normal -0.0 -0.0 1.0
  outer loop
    vertex -18.973056556319484 10.989415382021615 1.0
    vertex -18.730399367210705 7.148720506153021 1.0
    vertex -17.43135485546859 12.398191482256399 1.0
  endloop
endfacet
facet normal -0.0 -0.0 1.0
  outer loop
    vertex -17.43135485546859 12.398191482256399 1.0
    vertex -18.730399367210705 7.148720506153021 1.0
    vertex -18.002652744559775 -0.2825993643368303 1.0
  endloop
endfacet
facet normal -0.0 -0.0 1.0
  outer loop
    vertex -17.43135485546859 12.398191482256399 1.0
    vertex -18.002652744559775 -0.2825993643368303 1.0
    vertex -16.24285776383704 -1.407150768596472 1.0
  endloop
endfacet
facet normal -0.0 -0.0 1.0
  outer loop
    vertex -17.43135485546859 12.398191482256399 1.0
    vertex -16.24285776383704 -1.407150768596472 1.0
    vertex -15.577567281156913 13.359942938884815 1.0
  endloop
endfacet
facet normal -0.0 -0.0 1.0
  outer loop
    vertex -15.577567281156913 13.359942938884815 1.0
    vertex -16.24285776383704 -1.407150768596472 1.0
    vertex -14.251971022363898 -2.03791555647363 1.0
  endloop
endfacet
facet normal -0.0 -0.0 1.0
  outer loop
    vertex -15.577567281156913 13.359942938884815 1.0
    vertex -14.251971022363898 -2.03791555647363 1.0
    vertex -13.538026393044966 13.809127979507066 1.0
  endloop
endfacet
facet normal -0.0 -0.0 1.0
  outer loop
    vertex -13.538026393044966 13.809127979507066 1.0
    vertex -14.251971022363898 -2.03791555647363 1.0
    vertex -12.165668161475843 -2.131908150062576 1.0
  endloop
endfacet
facet normal -0.0 -0.0 1.0
  outer loop
    vertex -13.538026393044966 13.809127979507066 1.0
    vertex -12.165668161475843 -2.131908150062576 1.0
    vertex -11.451723532156912 13.71513538591812 1.0
  endloop
endfacet
facet normal -0.0 -0.0 1.0
  outer loop
    vertex -11.451723532156912 13.71513538591812 1.0
    vertex -12.165668161475843 -2.131908150062576 1.0
    vertex -10.1261272733639 -1.6827231094403226 1.0
  endloop
endfacet
facet normal -0.0 -0.0 1.0
  outer loop
    vertex -11.451723532156912 13.71513538591812 1.0
    vertex -10.1261272733639 -1.6827231094403226 1.0
    vertex -9.460836790683773 13.084370598040964 1.0
  endloop
endfacet
facet normal -0.0 -0.0 1.0
  outer loop
    vertex -9.460836790683773 13.084370598040964 1.0
    vertex -10.1261272733639 -1.6827231094403226 1.0
    vertex -8.272339699052223 -0.7209716528119084 1.0
  endloop
endfacet
facet normal -0.0 -0.0 1.0
  outer loop
    vertex -9.460836790683773 13.084370598040964 1.0
    vertex -8.272339699052223 -0.7209716528119084 1.0
    vertex -7.7010418099610325 11.95981919378132 1.0
  endloop
endfacet
facet normal -0.0 -0.0 1.0
  outer loop
    vertex -7.7010418099610325 11.95981919378132 1.0
    vertex -8.272339699052223 -0.7209716528119084 1.0
    vertex -6.730637998201329 0.6878044474228789 1.0
  endloop
endfacet
facet normal -0.0 -0.0 1.0
  outer loop
    vertex -7.7010418099610325 11.95981919378132 1.0
    vertex -6.730637998201329 0.6878044474228789 1.0
    vertex -6.2922657097262515 10.41811749293043 1.0
  endloop
endfacet
facet normal -0.0 -0.0 1.0
  outer loop
    vertex -6.2922657097262515 10.41811749293043 1.0
    vertex -6.730637998201329 0.6878044474228789 1.0
    vertex -5.60608659394169 2.4475994281456104 1.0
  endloop
endfacet
facet normal -0.0 -0.0 1.0
  outer loop
    vertex -6.2922657097262515 10.41811749293043 1.0
    vertex -5.60608659394169 2.4475994281456104 1.0
    vertex -5.330514253097838 8.564329918618752 1.0
  endloop
endfacet
facet normal -0.0 -0.0 1.0
  outer loop
    vertex -5.330514253097838 8.564329918618752 1.0
    vertex -5.60608659394169 2.4475994281456104 1.0
    vertex -4.975321806064532 4.438486169618752 1.0
  endloop
endfacet
facet normal -0.0 -0.0 1.0
  outer loop
    vertex -5.330514253097838 8.564329918618752 1.0
    vertex -4.975321806064532 4.438486169618752 1.0
    vertex -4.8813292124755865 6.524789030506805 1.0
  endloop
endfacet
facet normal 0.0 0.0 -1.0
  outer loop
    vertex -20.097607960579126 9.22962040129888 0.0
    vertex -18.730399367210705 7.148720506153021 0.0
    vertex -20.728372748456284 7.238733659825738 0.0
  endloop
endfacet
facet normal 0.0 0.0 -1.0
  outer loop
    vertex -18.730399367210705 7.148720506153021 0.0
    vertex -20.097607960579126 9.22962040129888 0.0
    vertex -18.973056556319484 10.989415382021615 0.0
  endloop
endfacet
facet normal 0.0 0.0 -1.0
  outer loop
    vertex -18.730399367210705 7.148720506153021 0.0
    vertex -18.973056556319484 10.989415382021615 0.0
    vertex -17.43135485546859 12.398191482256399 0.0
  endloop
endfacet
facet normal 0.0 0.0 -1.0
  outer loop
    vertex -18.730399367210705 7.148720506153021 0.0
    vertex -17.43135485546859 12.398191482256399 0.0
    vertex -18.002652744559775 -0.2825993643368303 0.0
  endloop
endfacet
facet normal 0.0 0.0 -1.0
  outer loop
    vertex -18.002652744559775 -0.2825993643368303 0.0
    vertex -17.43135485546859 12.398191482256399 0.0
    vertex -16.24285776383704 -1.407150768596472 0.0
  endloop
endfacet
facet normal 0.0 0.0 -1.0
  outer loop
    vertex -16.24285776383704 -1.407150768596472 0.0
    vertex -17.43135485546859 12.398191482256399 0.0
    vertex -15.577567281156913 13.359942938884815 0.0
  endloop
endfacet
facet normal 0.0 0.0 -1.0
  outer loop
    vertex -16.24285776383704 -1.407150768596472 0.0
    vertex -15.577567281156913 13.359942938884815 0.0
    vertex -14.251971022363898 -2.03791555647363 0.0
  endloop
endfacet
facet normal 0.0 0.0 -1.0
  outer loop
    vertex -14.251971022363898 -2.03791555647363 0.0
    vertex -15.577567281156913 13.359942938884815 0.0
    vertex -13.538026393044966 13.809127979507066 0.0
  endloop
endfacet
facet normal 0.0 0.0 -1.0
  outer loop
    vertex -14.251971022363898 -2.03791555647363 0.0
    vertex -13.538026393044966 13.809127979507066 0.0
    vertex -12.165668161475843 -2.131908150062576 0.0
  endloop
endfacet
facet normal 0.0 0.0 -1.0
  outer loop
    vertex -12.165668161475843 -2.131908150062576 0.0
    vertex -13.538026393044966 13.809127979507066 0.0
    vertex -11.451723532156912 13.71513538591812 0.0
  endloop
endfacet
facet normal 0.0 0.0 -1.0
  outer loop
    vertex -12.165668161475843 -2.131908150062576 0.0
    vertex -11.451723532156912 13.71513538591812 0.0
    vertex -10.1261272733639 -1.6827231094403226 0.0
  endloop
endfacet
facet normal 0.0 0.0 -1.0
  outer loop
    vertex -10.1261272733639 -1.6827231094403226 0.0
    vertex -11.451723532156912 13.71513538591812 0.0
    vertex -9.460836790683773 13.084370598040964 0.0
  endloop
endfacet
facet normal 0.0 0.0 -1.0
  outer loop
    vertex -10.1261272733639 -1.6827231094403226 0.0
    vertex -9.460836790683773 13.084370598040964 0.0
    vertex -8.272339699052223 -0.7209716528119084 0.0
  endloop
endfacet
facet normal 0.0 0.0 -1.0
  outer loop
    vertex -8.272339699052223 -0.7209716528119084 0.0
    vertex -9.460836790683773 13.084370598040964 0.0
    vertex -7.7010418099610325 11.95981919378132 0.0
  endloop
endfacet
facet normal 0.0 0.0 -1.0
  outer loop
    vertex -8.272339699052223 -0.7209716528119084 0.0
    vertex -7.7010418099610325 11.95981919378132 0.0
    vertex -6.730637998201329 0.6878044474228789 0.0
  endloop
endfacet
facet normal 0.0 0.0 -1.0
  outer loop
    vertex -6.730637998201329 0.6878044474228789 0.0
    vertex -7.7010418099610325 11.95981919378132 0.0
    vertex -6.2922657097262515 10.41811749293043 0.0
  endloop
endfacet
facet normal 0.0 0.0 -1.0
  outer loop
    vertex -6.730637998201329 0.6878044474228789 0.0
    vertex -6.2922657097262515 10.41811749293043 0.0
    vertex -5.60608659394169 2.4475994281456104 0.0
  endloop
endfacet
facet normal 0.0 0.0 -1.0
  outer loop
    vertex -5.60608659394169 2.4475994281456104 0.0
    vertex -6.2922657097262515 10.41811749293043 0.0
    vertex -5.330514253097838 8.564329918618752 0.0
  endloop
endfacet
facet normal 0.0 0.0 -1.0
  outer loop
    vertex -5.60608659394169 2.4475994281456104 0.0
    vertex -5.330514253097838 8.564329918618752 0.0
    vertex -4.975321806064532 4.438486169618752 0.0
  endloop
endfacet
facet normal 0.0 0.0 -1.0
  outer loop
    vertex -4.975321806064532 4.438486169618752 0.0
    vertex -5.330514253097838 8.564329918618752 0.0
    vertex -4.8813292124755865 6.524789030506805 0.0
  endloop
endfacet
facet normal 0.0 0.0 -1.0
  outer loop
    vertex -18.824391960799648 5.062417645264966 0.0
    vertex -20.373180301422973 3.112889910825739 0.0
    vertex -20.822365342045227 5.152430798937682 0.0
  endloop
endfacet
facet normal 0.0 0.0 -1.0
  outer loop
    vertex -20.373180301422973 3.112889910825739 0.0
    vertex -18.824391960799648 5.062417645264966 0.0
    vertex -19.41142884479456 1.2591023365140601 0.0
  endloop
endfacet
facet normal 0.0 0.0 -1.0
  outer loop
    vertex -19.41142884479456 1.2591023365140601 0.0
    vertex -18.824391960799648 5.062417645264966 0.0
    vertex -18.002652744559775 -0.2825993643368303 0.0
  endloop
endfacet
facet normal 0.0 0.0 -1.0
  outer loop
    vertex -18.002652744559775 -0.2825993643368303 0.0
    vertex -18.824391960799648 5.062417645264966 0.0
    vertex -18.730399367210705 7.148720506153021 0.0
  endloop
endfacet
facet normal 0.8876511405400607 0.4605165064337318 0.0
  outer loop
    vertex -6.2922657097262515 10.41811749293043 0.0
    vertex -5.330514253097838 8.564329918618752 1.0
    vertex -5.330514253097838 8.564329918618752 0.0
  endloop
endfacet
facet normal 0.8876511405400607 0.4605165064337318 0.0
  outer loop
    vertex -5.330514253097838 8.564329918618752 1.0
    vertex -6.2922657097262515 10.41811749293043 0.0
    vertex -6.2922657097262515 10.41811749293043 1.0
  endloop
endfacet
facet normal -0.045006576836358746 -0.9989866906227896 -0.0
  outer loop
    vertex -12.165668161475843 -2.131908150062576 1.0
    vertex -14.251971022363898 -2.03791555647363 0.0
    vertex -12.165668161475843 -2.131908150062576 0.0
  endloop
endfacet
facet normal -0.045006576836358746 -0.9989866906227896 -0.0
  outer loop
    vertex -14.251971022363898 -2.03791555647363 0.0
    vertex -12.165668161475843 -2.131908150062576 1.0
    vertex -14.251971022363898 -2.03791555647363 1.0
  endloop
endfacet
facet normal 0.842644563703702 -0.5384701841890578 0.0
  outer loop
    vertex -5.60608659394169 2.4475994281456104 0.0
    vertex -6.730637998201329 0.6878044474228789 1.0
    vertex -6.730637998201329 0.6878044474228789 0.0
  endloop
endfacet
facet normal 0.842644563703702 -0.5384701841890578 0.0
  outer loop
    vertex -6.730637998201329 0.6878044474228789 1.0
    vertex -5.60608659394169 2.4475994281456104 0.0
    vertex -5.60608659394169 2.4475994281456104 1.0
  endloop
endfacet
facet normal -0.8426445637037023 0.5384701841890571 0.0
  outer loop
    vertex -18.973056556319484 10.989415382021615 1.0
    vertex -20.097607960579126 9.22962040129888 0.0
    vertex -20.097607960579126 9.22962040129888 1.0
  endloop
endfacet
facet normal -0.8426445637037023 0.5384701841890571 0.0
  outer loop
    vertex -20.097607960579126 9.22962040129888 0.0
    vertex -18.973056556319484 10.989415382021615 1.0
    vertex -18.973056556319484 10.989415382021615 0.0
  endloop
endfacet
facet normal -0.9532984853514802 0.30202979625622006 0.0
  outer loop
    vertex -20.097607960579126 9.22962040129888 1.0
    vertex -20.728372748456284 7.238733659825738 0.0
    vertex -20.728372748456284 7.238733659825738 1.0
  endloop
endfacet
facet normal -0.9532984853514802 0.30202979625622006 0.0
  outer loop
    vertex -20.728372748456284 7.238733659825738 0.0
    vertex -20.097607960579126 9.22962040129888 1.0
    vertex -20.097607960579126 9.22962040129888 0.0
  endloop
endfacet
facet normal -0.21508376641801574 0.9765956038317193 0.0
  outer loop
    vertex -15.577567281156913 13.359942938884815 1.0
    vertex -13.538026393044966 13.809127979507066 0.0
    vertex -15.577567281156913 13.359942938884815 0.0
  endloop
endfacet
facet normal -0.21508376641801574 0.9765956038317193 0.0
  outer loop
    vertex -13.538026393044966 13.809127979507066 0.0
    vertex -15.577567281156913 13.359942938884815 1.0
    vertex -13.538026393044966 13.809127979507066 1.0
  endloop
endfacet
endsolid CoffeeIdeas
