solid CoffeeIdeas
facet normal 1.0 0.0 0.0
  outer loop
    vertex 18.0 0.0 0.0
    vertex 18.0 -18.0 4.0
    vertex 18.0 -18.0 0.0
  endloop
endfacet
facet normal 1.0 0.0 0.0
  outer loop
    vertex 18.0 -18.0 4.0
    vertex 18.0 0.0 0.0
    vertex 18.0 0.0 4.0
  endloop
endfacet
facet normal 0.1416137816796082 0.9899219852283312 2.1208681691616667e-17
  outer loop
    vertex 6.54687994731756 -16.72490413611547 1.9739765377835285e-15
    vertex 7.999999999999999 -16.932780947587 1.0
    vertex 7.999999999999999 -16.932780947587 9.869882688917642e-16
  endloop
endfacet
facet normal 0.1416137816796082 0.9899219852283312 2.1208681691616667e-17
  outer loop
    vertex 7.999999999999999 -16.932780947587 1.0
    vertex 6.54687994731756 -16.72490413611547 1.9739765377835285e-15
    vertex 6.54687994731756 -16.72490413611547 4.000000000000002
  endloop
endfacet
facet normal 0.1416137816796082 0.9899219852283312 2.1208681691616667e-17
  outer loop
    vertex 7.999999999999999 -16.932780947587 1.0
    vertex 6.54687994731756 -16.72490413611547 4.000000000000002
    vertex 8.614251904545853 -17.020653059131806 1.0000000000000004
  endloop
endfacet
facet normal 0.1416137816796082 0.9899219852283312 2.1208681691616667e-17
  outer loop
    vertex 8.614251904545853 -17.020653059131806 1.0000000000000004
    vertex 6.54687994731756 -16.72490413611547 4.000000000000002
    vertex 8.614251904545853 -17.020653059131806 4.000000000000002
  endloop
endfacet
facet normal 0.0 1.0 0.0
  outer loop
    vertex 0.0 0.0 4.0
    vertex 18.0 0.0 0.0
    vertex 0.0 0.0 0.0
  endloop
endfacet
facet normal 0.0 1.0 0.0
  outer loop
    vertex 18.0 0.0 0.0
    vertex 0.0 0.0 4.0
    vertex 18.0 0.0 4.0
  endloop
endfacet
facet normal -3.036308713831937e-17 1.0384346319000291e-16 -1.0
  outer loop
    vertex 8.614251904545853 -17.020653059131806 1.0000000000000004
    vertex 7.999999999999999 -18.0 1.0
    vertex 7.999999999999999 -16.932780947587 1.0
  endloop
endfacet
facet normal -3.036308713831937e-17 1.0384346319000291e-16 -1.0
  outer loop
    vertex 7.999999999999999 -18.0 1.0
    vertex 8.614251904545853 -17.020653059131806 1.0000000000000004
    vertex 10.0 -18.0 1.0
  endloop
endfacet
facet normal -3.036308713831937e-17 1.0384346319000291e-16 -1.0
  outer loop
    vertex 10.0 -18.0 1.0
    vertex 8.614251904545853 -17.020653059131806 1.0000000000000004
    vertex 10.0 -16.853971047691637 1.0
  endloop
endfacet
facet normal 1.0 0.0 0.0
  outer loop
    vertex 7.999999999999999 -16.932780947587 9.869882688917642e-16
    vertex 7.999999999999999 -18.0 1.0
    vertex 7.999999999999999 -18.0 0.0
  endloop
endfacet
facet normal 1.0 0.0 0.0
  outer loop
    vertex 7.999999999999999 -18.0 1.0
    vertex 7.999999999999999 -16.932780947587 9.869882688917642e-16
    vertex 7.999999999999999 -16.932780947587 1.0
  endloop
endfacet
facet normal 0.0 0.0 1.0
  outer loop
    vertex 0.0 -18.0 4.0
    vertex 0.7042849902665064 -8.931622003745376 4.000000000000002
    vertex 0.0 0.0 4.0
  endloop
endfacet
facet normal 0.0 0.0 1.0
  outer loop
    vertex 0.7042849902665064 -8.931622003745376 4.000000000000002
    vertex 0.0 -18.0 4.0
    vertex 0.9536887032694042 -11.005095423623152 4.000000000000002
  endloop
endfacet
facet normal 0.0 0.0 1.0
  outer loop
    vertex 0.9536887032694042 -11.005095423623152 4.000000000000002
    vertex 0.0 -18.0 4.0
    vertex 1.7312486014095148 -12.943366519162574 4.000000000000002
  endloop
endfacet
facet normal 0.0 0.0 1.0
  outer loop
    vertex 1.7312486014095148 -12.943366519162574 4.000000000000002
    vertex 0.0 -18.0 4.0
    vertex 2.983975262607073 -14.614345318347073 4.000000000000002
  endloop
endfacet
facet normal 0.0 0.0 1.0
  outer loop
    vertex 2.983975262607073 -14.614345318347073 4.000000000000002
    vertex 0.0 -18.0 4.0
    vertex 4.626497435130163 -15.904157377435256 4.000000000000002
  endloop
endfacet
facet normal 0.0 0.0 1.0
  outer loop
    vertex 4.626497435130163 -15.904157377435256 4.000000000000002
    vertex 0.0 -18.0 4.0
    vertex 6.54687994731756 -16.72490413611547 4.000000000000002
  endloop
endfacet
facet normal 0.0 0.0 1.0
  outer loop
    vertex 6.54687994731756 -16.72490413611547 4.000000000000002
    vertex 0.0 -18.0 4.0
    vertex 8.614251904545853 -17.020653059131806 4.000000000000002
  endloop
endfacet
facet normal 0.0 0.0 1.0
  outer loop
    vertex 8.614251904545853 -17.020653059131806 4.000000000000002
    vertex 0.0 -18.0 4.0
    vertex 18.0 -18.0 4.0
  endloop
endfacet
facet normal 0.0 0.0 1.0
  outer loop
    vertex 8.614251904545853 -17.020653059131806 4.000000000000002
    vertex 18.0 -18.0 4.0
    vertex 10.687725324423628 -16.771249346128908 4.000000000000002
  endloop
endfacet
facet normal 0.0 0.0 1.0
  outer loop
    vertex 10.687725324423628 -16.771249346128908 4.000000000000002
    vertex 18.0 -18.0 4.0
    vertex 12.625996419963052 -15.9936894479888 4.000000000000002
  endloop
endfacet
facet normal 0.0 0.0 1.0
  outer loop
    vertex 12.625996419963052 -15.9936894479888 4.000000000000002
    vertex 18.0 -18.0 4.0
    vertex 14.296975219147553 -14.740962786791242 4.000000000000002
  endloop
endfacet
facet normal 0.0 0.0 1.0
  outer loop
    vertex 14.296975219147553 -14.740962786791242 4.000000000000002
    vertex 18.0 -18.0 4.0
    vertex 15.586787278235736 -13.098440614268148 4.000000000000002
  endloop
endfacet
facet normal 0.0 0.0 1.0
  outer loop
    vertex 15.586787278235736 -13.098440614268148 4.000000000000002
    vertex 18.0 -18.0 4.0
    vertex 16.407534036915948 -11.17805810208075 4.000000000000002
  endloop
endfacet
facet normal 0.0 0.0 1.0
  outer loop
    vertex 16.407534036915948 -11.17805810208075 4.000000000000002
    vertex 18.0 -18.0 4.0
    vertex 16.703282959932285 -9.110686144852462 4.000000000000002
  endloop
endfacet
facet normal 0.0 0.0 1.0
  outer loop
    vertex 0.0 0.0 4.0
    vertex 8.793316045652935 -1.021655089466029 4.000000000000002
    vertex 18.0 0.0 4.0
  endloop
endfacet
facet normal 0.0 0.0 1.0
  outer loop
    vertex 8.793316045652935 -1.021655089466029 4.000000000000002
    vertex 0.0 0.0 4.0
    vertex 6.719842625775163 -1.271058802468928 4.000000000000002
  endloop
endfacet
facet normal 0.0 0.0 1.0
  outer loop
    vertex 6.719842625775163 -1.271058802468928 4.000000000000002
    vertex 0.0 0.0 4.0
    vertex 4.7815715302357376 -2.0486187006090386 4.000000000000002
  endloop
endfacet
facet normal 0.0 0.0 1.0
  outer loop
    vertex 4.7815715302357376 -2.0486187006090386 4.000000000000002
    vertex 0.0 0.0 4.0
    vertex 3.1105927310512387 -3.3013453618065967 4.000000000000002
  endloop
endfacet
facet normal 0.0 0.0 1.0
  outer loop
    vertex 3.1105927310512387 -3.3013453618065967 4.000000000000002
    vertex 0.0 0.0 4.0
    vertex 1.8207806719630562 -4.943867534329686 4.000000000000002
  endloop
endfacet
facet normal 0.0 0.0 1.0
  outer loop
    vertex 1.8207806719630562 -4.943867534329686 4.000000000000002
    vertex 0.0 0.0 4.0
    vertex 1.000033913282843 -6.8642500465170855 4.000000000000002
  endloop
endfacet
facet normal 0.0 0.0 1.0
  outer loop
    vertex 1.000033913282843 -6.8642500465170855 4.000000000000002
    vertex 0.0 0.0 4.0
    vertex 0.7042849902665064 -8.931622003745376 4.000000000000002
  endloop
endfacet
facet normal 0.0 0.0 1.0
  outer loop
    vertex 18.0 0.0 4.0
    vertex 8.793316045652935 -1.021655089466029 4.000000000000002
    vertex 10.860688002881226 -1.3174040124823667 4.000000000000002
  endloop
endfacet
facet normal 0.0 0.0 1.0
  outer loop
    vertex 18.0 0.0 4.0
    vertex 10.860688002881226 -1.3174040124823667 4.000000000000002
    vertex 12.781070515068626 -2.1381507711625787 4.000000000000002
  endloop
endfacet
facet normal 0.0 0.0 1.0
  outer loop
    vertex 18.0 0.0 4.0
    vertex 12.781070515068626 -2.1381507711625787 4.000000000000002
    vertex 14.423592687591714 -3.427962830250763 4.000000000000002
  endloop
endfacet
facet normal 0.0 0.0 1.0
  outer loop
    vertex 18.0 0.0 4.0
    vertex 14.423592687591714 -3.427962830250763 4.000000000000002
    vertex 15.676319348789278 -5.098941629435261 4.000000000000002
  endloop
endfacet
facet normal 0.0 0.0 1.0
  outer loop
    vertex 18.0 0.0 4.0
    vertex 15.676319348789278 -5.098941629435261 4.000000000000002
    vertex 16.453879246929386 -7.037212724974684 4.000000000000002
  endloop
endfacet
facet normal 0.0 0.0 1.0
  outer loop
    vertex 18.0 0.0 4.0
    vertex 16.453879246929386 -7.037212724974684 4.000000000000002
    vertex 16.703282959932285 -9.110686144852462 4.000000000000002
  endloop
endfacet
facet normal 0.0 0.0 1.0
  outer loop
    vertex 18.0 0.0 4.0
    vertex 16.703282959932285 -9.110686144852462 4.000000000000002
    vertex 18.0 -18.0 4.0
  endloop
endfacet
facet normal -0.6176021250746904 -0.786490696132654 2.289417578180934e-32
  outer loop
    vertex 14.423592687591714 -3.427962830250763 4.000000000000002
    vertex 12.781070515068626 -2.1381507711625787 1.9739765377835285e-15
    vertex 14.423592687591714 -3.427962830250763 1.9739765377835285e-15
  endloop
endfacet
facet normal -0.6176021250746904 -0.786490696132654 2.289417578180934e-32
  outer loop
    vertex 12.781070515068626 -2.1381507711625787 1.9739765377835285e-15
    vertex 14.423592687591714 -3.427962830250763 4.000000000000002
    vertex 12.781070515068626 -2.1381507711625787 4.000000000000002
  endloop
endfacet
facet normal -0.9899219852283311 0.14161378167960847 -4.737803641602067e-34
  outer loop
    vertex 16.703282959932285 -9.110686144852462 4.000000000000002
    vertex 16.407534036915948 -11.17805810208075 1.9739765377835285e-15
    vertex 16.407534036915948 -11.17805810208075 4.000000000000002
  endloop
endfacet
facet normal -0.9899219852283311 0.14161378167960847 -4.737803641602067e-34
  outer loop
    vertex 16.407534036915948 -11.17805810208075 1.9739765377835285e-15
    vertex 16.703282959932285 -9.110686144852462 4.000000000000002
    vertex 16.703282959932285 -9.110686144852462 1.9739765377835285e-15
  endloop
endfacet
facet normal -1.0 0.0 0.0
  outer loop
    vertex 10.0 -16.853971047691637 1.0
    vertex 10.0 -18.0 0.0
    vertex 10.0 -18.0 1.0
  endloop
endfacet
facet normal -1.0 0.0 0.0
  outer loop
    vertex 10.0 -18.0 0.0
    vertex 10.0 -16.853971047691637 1.0
    vertex 10.0 -16.853971047691637 9.869882688917642e-16
  endloop
endfacet
facet normal 0.6176021250746901 0.7864906961326542 -2.289417578180935e-32
  outer loop
    vertex 2.983975262607073 -14.614345318347073 4.000000000000002
    vertex 4.626497435130163 -15.904157377435256 1.9739765377835285e-15
    vertex 2.983975262607073 -14.614345318347073 1.9739765377835285e-15
  endloop
endfacet
facet normal 0.6176021250746901 0.7864906961326542 -2.289417578180935e-32
  outer loop
    vertex 4.626497435130163 -15.904157377435256 1.9739765377835285e-15
    vertex 2.983975262607073 -14.614345318347073 4.000000000000002
    vertex 4.626497435130163 -15.904157377435256 4.000000000000002
  endloop
endfacet
facet normal -0.919538867795717 0.392999072025585 -7.370552152505873e-33
  outer loop
    vertex 16.407534036915948 -11.17805810208075 4.000000000000002
    vertex 15.586787278235736 -13.098440614268148 1.9739765377835285e-15
    vertex 15.586787278235736 -13.098440614268148 4.000000000000002
  endloop
endfacet
facet normal -0.919538867795717 0.392999072025585 -7.370552152505873e-33
  outer loop
    vertex 15.586787278235736 -13.098440614268148 1.9739765377835285e-15
    vertex 16.407534036915948 -11.17805810208075 4.000000000000002
    vertex 16.407534036915948 -11.17805810208075 1.9739765377835285e-15
  endloop
endfacet
facet normal 0.9899219852283311 -0.14161378167960886 4.7378036416021694e-34
  outer loop
    vertex 1.000033913282843 -6.8642500465170855 1.9739765377835285e-15
    vertex 0.7042849902665064 -8.931622003745376 4.000000000000002
    vertex 0.7042849902665064 -8.931622003745376 1.9739765377835285e-15
  endloop
endfacet
facet normal 0.9899219852283311 -0.14161378167960886 4.7378036416021694e-34
  outer loop
    vertex 0.7042849902665064 -8.931622003745376 4.000000000000002
    vertex 1.000033913282843 -6.8642500465170855 1.9739765377835285e-15
    vertex 1.000033913282843 -6.8642500465170855 4.000000000000002
  endloop
endfacet
facet normal -0.786490696132655 0.6176021250746889 -1.3765032992071523e-32
  outer loop
    vertex 15.586787278235736 -13.098440614268148 4.000000000000002
    vertex 14.296975219147553 -14.740962786791242 1.9739765377835285e-15
    vertex 14.296975219147553 -14.740962786791242 4.000000000000002
  endloop
endfacet
facet normal -0.786490696132655 0.6176021250746889 -1.3765032992071523e-32
  outer loop
    vertex 14.296975219147553 -14.740962786791242 1.9739765377835285e-15
    vertex 15.586787278235736 -13.098440614268148 4.000000000000002
    vertex 15.586787278235736 -13.098440614268148 1.9739765377835285e-15
  endloop
endfacet
facet normal 0.9928435552910639 0.11942225385999197 -6.455278773043855e-33
  outer loop
    vertex 0.7042849902665064 -8.931622003745376 1.9739765377835285e-15
    vertex 0.9536887032694042 -11.005095423623152 4.000000000000002
    vertex 0.9536887032694042 -11.005095423623152 1.9739765377835285e-15
  endloop
endfacet
facet normal 0.9928435552910639 0.11942225385999197 -6.455278773043855e-33
  outer loop
    vertex 0.9536887032694042 -11.005095423623152 4.000000000000002
    vertex 0.7042849902665064 -8.931622003745376 1.9739765377835285e-15
    vertex 0.7042849902665064 -8.931622003745376 4.000000000000002
  endloop
endfacet
facet normal -0.11942225385999147 0.9928435552910639 4.073747698708614e-17
  outer loop
    vertex 10.0 -16.853971047691637 1.0
    vertex 10.687725324423628 -16.771249346128908 1.9739765377835285e-15
    vertex 10.0 -16.853971047691637 9.869882688917642e-16
  endloop
endfacet
facet normal -0.11942225385999147 0.9928435552910639 4.073747698708614e-17
  outer loop
    vertex 10.687725324423628 -16.771249346128908 1.9739765377835285e-15
    vertex 10.0 -16.853971047691637 1.0
    vertex 10.687725324423628 -16.771249346128908 4.000000000000002
  endloop
endfacet
facet normal -0.11942225385999147 0.9928435552910639 4.073747698708614e-17
  outer loop
    vertex 10.687725324423628 -16.771249346128908 4.000000000000002
    vertex 10.0 -16.853971047691637 1.0
    vertex 8.614251904545853 -17.020653059131806 1.0000000000000004
  endloop
endfacet
facet normal -0.11942225385999147 0.9928435552910639 4.073747698708614e-17
  outer loop
    vertex 10.687725324423628 -16.771249346128908 4.000000000000002
    vertex 8.614251904545853 -17.020653059131806 1.0000000000000004
    vertex 8.614251904545853 -17.020653059131806 4.000000000000002
  endloop
endfacet
facet normal 0.9195388677957174 -0.3929990720255841 7.37055215250585e-33
  outer loop
    vertex 1.8207806719630562 -4.943867534329686 1.9739765377835285e-15
    vertex 1.000033913282843 -6.8642500465170855 4.000000000000002
    vertex 1.000033913282843 -6.8642500465170855 1.9739765377835285e-15
  endloop
endfacet
facet normal 0.9195388677957174 -0.3929990720255841 7.37055215250585e-33
  outer loop
    vertex 1.000033913282843 -6.8642500465170855 4.000000000000002
    vertex 1.8207806719630562 -4.943867534329686 1.9739765377835285e-15
    vertex 1.8207806719630562 -4.943867534329686 4.000000000000002
  endloop
endfacet
facet normal 0.0 -1.0 0.0
  outer loop
    vertex 18.0 -18.0 4.0
    vertex 10.0 -18.0 0.0
    vertex 18.0 -18.0 0.0
  endloop
endfacet
facet normal 0.0 -1.0 0.0
  outer loop
    vertex 10.0 -18.0 0.0
    vertex 18.0 -18.0 4.0
    vertex 10.0 -18.0 1.0
  endloop
endfacet
facet normal 0.0 -1.0 0.0
  outer loop
    vertex 10.0 -18.0 1.0
    vertex 18.0 -18.0 4.0
    vertex 7.999999999999999 -18.0 1.0
  endloop
endfacet
facet normal 0.0 -1.0 0.0
  outer loop
    vertex 7.999999999999999 -18.0 1.0
    vertex 0.0 -18.0 0.0
    vertex 7.999999999999999 -18.0 0.0
  endloop
endfacet
facet normal 0.0 -1.0 0.0
  outer loop
    vertex 0.0 -18.0 0.0
    vertex 7.999999999999999 -18.0 1.0
    vertex 0.0 -18.0 4.0
  endloop
endfacet
facet normal 0.0 -1.0 0.0
  outer loop
    vertex 0.0 -18.0 4.0
    vertex 7.999999999999999 -18.0 1.0
    vertex 18.0 -18.0 4.0
  endloop
endfacet
facet normal 0.786490696132654 -0.6176021250746904 1.376503299207156e-32
  outer loop
    vertex 3.1105927310512387 -3.3013453618065967 1.9739765377835285e-15
    vertex 1.8207806719630562 -4.943867534329686 4.000000000000002
    vertex 1.8207806719630562 -4.943867534329686 1.9739765377835285e-15
  endloop
endfacet
facet normal 0.786490696132654 -0.6176021250746904 1.376503299207156e-32
  outer loop
    vertex 1.8207806719630562 -4.943867534329686 4.000000000000002
    vertex 3.1105927310512387 -3.3013453618065967 1.9739765377835285e-15
    vertex 3.1105927310512387 -3.3013453618065967 4.000000000000002
  endloop
endfacet
facet normal -0.928104477812263 -0.37231986015364077 1.2944421329717573e-32
  outer loop
    vertex 15.676319348789278 -5.098941629435261 4.000000000000002
    vertex 16.453879246929386 -7.037212724974684 1.9739765377835285e-15
    vertex 16.453879246929386 -7.037212724974684 4.000000000000002
  endloop
endfacet
facet normal -0.928104477812263 -0.37231986015364077 1.2944421329717573e-32
  outer loop
    vertex 16.453879246929386 -7.037212724974684 1.9739765377835285e-15
    vertex 15.676319348789278 -5.098941629435261 4.000000000000002
    vertex 15.676319348789278 -5.098941629435261 1.9739765377835285e-15
  endloop
endfacet
facet normal -1.0 0.0 0.0
  outer loop
    vertex 0.0 0.0 4.0
    vertex 0.0 -18.0 0.0
    vertex 0.0 -18.0 4.0
  endloop
endfacet
facet normal -1.0 0.0 0.0
  outer loop
    vertex 0.0 -18.0 0.0
    vertex 0.0 0.0 4.0
    vertex 0.0 0.0 0.0
  endloop
endfacet
facet normal -0.8001166139357242 -0.5998444832654806 1.8551422964438735e-32
  outer loop
    vertex 14.423592687591714 -3.427962830250763 4.000000000000002
    vertex 15.676319348789278 -5.098941629435261 1.9739765377835285e-15
    vertex 15.676319348789278 -5.098941629435261 4.000000000000002
  endloop
endfacet
facet normal -0.8001166139357242 -0.5998444832654806 1.8551422964438735e-32
  outer loop
    vertex 15.676319348789278 -5.098941629435261 1.9739765377835285e-15
    vertex 14.423592687591714 -3.427962830250763 4.000000000000002
    vertex 14.423592687591714 -3.427962830250763 1.9739765377835285e-15
  endloop
endfacet
facet normal 0.9281044778122627 0.3723198601536415 -1.294442132971759e-32
  outer loop
    vertex 0.9536887032694042 -11.005095423623152 1.9739765377835285e-15
    vertex 1.7312486014095148 -12.943366519162574 4.000000000000002
    vertex 1.7312486014095148 -12.943366519162574 1.9739765377835285e-15
  endloop
endfacet
facet normal 0.9281044778122627 0.3723198601536415 -1.294442132971759e-32
  outer loop
    vertex 1.7312486014095148 -12.943366519162574 4.000000000000002
    vertex 0.9536887032694042 -11.005095423623152 1.9739765377835285e-15
    vertex 0.9536887032694042 -11.005095423623152 4.000000000000002
  endloop
endfacet
facet normal -0.5998444832654789 0.8001166139357255 -1.9221449581020175e-32
  outer loop
    vertex 12.625996419963052 -15.9936894479888 4.000000000000002
    vertex 14.296975219147553 -14.740962786791242 1.9739765377835285e-15
    vertex 12.625996419963052 -15.9936894479888 1.9739765377835285e-15
  endloop
endfacet
facet normal -0.5998444832654789 0.8001166139357255 -1.9221449581020175e-32
  outer loop
    vertex 14.296975219147553 -14.740962786791242 1.9739765377835285e-15
    vertex 12.625996419963052 -15.9936894479888 4.000000000000002
    vertex 14.296975219147553 -14.740962786791242 4.000000000000002
  endloop
endfacet
facet normal -0.1416137816796094 -0.9899219852283311 2.6709454321789136e-32
  outer loop
    vertex 10.860688002881226 -1.3174040124823667 4.000000000000002
    vertex 8.793316045652935 -1.021655089466029 1.9739765377835285e-15
    vertex 10.860688002881226 -1.3174040124823667 1.9739765377835285e-15
  endloop
endfacet
facet normal -0.1416137816796094 -0.9899219852283311 2.6709454321789136e-32
  outer loop
    vertex 8.793316045652935 -1.021655089466029 1.9739765377835285e-15
    vertex 10.860688002881226 -1.3174040124823667 4.000000000000002
    vertex 8.793316045652935 -1.021655089466029 4.000000000000002
  endloop
endfacet
facet normal 0.11942225385999262 -0.9928435552910637 2.592197511694456e-32
  outer loop
    vertex 8.793316045652935 -1.021655089466029 4.000000000000002
    vertex 6.719842625775163 -1.271058802468928 1.9739765377835285e-15
    vertex 8.793316045652935 -1.021655089466029 1.9739765377835285e-15
  endloop
endfacet
facet normal 0.11942225385999262 -0.9928435552910637 2.592197511694456e-32
  outer loop
    vertex 6.719842625775163 -1.271058802468928 1.9739765377835285e-15
    vertex 8.793316045652935 -1.021655089466029 4.000000000000002
    vertex 6.719842625775163 -1.271058802468928 4.000000000000002
  endloop
endfacet
facet normal 0.8001166139357255 0.5998444832654789 -1.85514229644387e-32
  outer loop
    vertex 1.7312486014095148 -12.943366519162574 1.9739765377835285e-15
    vertex 2.983975262607073 -14.614345318347073 4.000000000000002
    vertex 2.983975262607073 -14.614345318347073 1.9739765377835285e-15
  endloop
endfacet
facet normal 0.8001166139357255 0.5998444832654789 -1.85514229644387e-32
  outer loop
    vertex 2.983975262607073 -14.614345318347073 4.000000000000002
    vertex 1.7312486014095148 -12.943366519162574 1.9739765377835285e-15
    vertex 1.7312486014095148 -12.943366519162574 4.000000000000002
  endloop
endfacet
facet normal -0.9928435552910637 -0.11942225385999229 6.455278773043863e-33
  outer loop
    vertex 16.453879246929386 -7.037212724974684 4.000000000000002
    vertex 16.703282959932285 -9.110686144852462 1.9739765377835285e-15
    vertex 16.703282959932285 -9.110686144852462 4.000000000000002
  endloop
endfacet
facet normal -0.9928435552910637 -0.11942225385999229 6.455278773043863e-33
  outer loop
    vertex 16.703282959932285 -9.110686144852462 1.9739765377835285e-15
    vertex 16.453879246929386 -7.037212724974684 4.000000000000002
    vertex 16.453879246929386 -7.037212724974684 1.9739765377835285e-15
  endloop
endfacet
facet normal 0.5998444832654795 -0.800116613935725 1.922144958102016e-32
  outer loop
    vertex 4.7815715302357376 -2.0486187006090386 4.000000000000002
    vertex 3.1105927310512387 -3.3013453618065967 1.9739765377835285e-15
    vertex 4.7815715302357376 -2.0486187006090386 1.9739765377835285e-15
  endloop
endfacet
facet normal 0.5998444832654795 -0.800116613935725 1.922144958102016e-32
  outer loop
    vertex 3.1105927310512387 -3.3013453618065967 1.9739765377835285e-15
    vertex 4.7815715302357376 -2.0486187006090386 4.000000000000002
    vertex 3.1105927310512387 -3.3013453618065967 4.000000000000002
  endloop
endfacet
facet normal -2.4951062589705005e-18 3.047954855859594e-17 -1.0
  outer loop
    vertex 0.0 0.0 0.0
    vertex 0.7042849902665064 -8.931622003745376 1.9739765377835285e-15
    vertex 0.0 -18.0 0.0
  endloop
endfacet
facet normal -2.4951062589705005e-18 3.047954855859594e-17 -1.0
  outer loop
    vertex 0.7042849902665064 -8.931622003745376 1.9739765377835285e-15
    vertex 0.0 0.0 0.0
    vertex 1.000033913282843 -6.8642500465170855 1.9739765377835285e-15
  endloop
endfacet
facet normal -2.4951062589705005e-18 3.047954855859594e-17 -1.0
  outer loop
    vertex 1.000033913282843 -6.8642500465170855 1.9739765377835285e-15
    vertex 0.0 0.0 0.0
    vertex 1.8207806719630562 -4.943867534329686 1.9739765377835285e-15
  endloop
endfacet
facet normal -2.4951062589705005e-18 3.047954855859594e-17 -1.0
  outer loop
    vertex 1.8207806719630562 -4.943867534329686 1.9739765377835285e-15
    vertex 0.0 0.0 0.0
    vertex 3.1105927310512387 -3.3013453618065967 1.9739765377835285e-15
  endloop
endfacet
facet normal -2.4951062589705005e-18 3.047954855859594e-17 -1.0
  outer loop
    vertex 3.1105927310512387 -3.3013453618065967 1.9739765377835285e-15
    vertex 0.0 0.0 0.0
    vertex 4.7815715302357376 -2.0486187006090386 1.9739765377835285e-15
  endloop
endfacet
facet normal -2.4951062589705005e-18 3.047954855859594e-17 -1.0
  outer loop
    vertex 4.7815715302357376 -2.0486187006090386 1.9739765377835285e-15
    vertex 0.0 0.0 0.0
    vertex 6.719842625775163 -1.271058802468928 1.9739765377835285e-15
  endloop
endfacet
facet normal -2.4951062589705005e-18 3.047954855859594e-17 -1.0
  outer loop
    vertex 6.719842625775163 -1.271058802468928 1.9739765377835285e-15
    vertex 0.0 0.0 0.0
    vertex 8.793316045652935 -1.021655089466029 1.9739765377835285e-15
  endloop
endfacet
facet normal -2.4951062589705005e-18 3.047954855859594e-17 -1.0
  outer loop
    vertex 8.793316045652935 -1.021655089466029 1.9739765377835285e-15
    vertex 0.0 0.0 0.0
    vertex 18.0 0.0 0.0
  endloop
endfacet
facet normal -2.4951062589705005e-18 3.047954855859594e-17 -1.0
  outer loop
    vertex 8.793316045652935 -1.021655089466029 1.9739765377835285e-15
    vertex 18.0 0.0 0.0
    vertex 10.860688002881226 -1.3174040124823667 1.9739765377835285e-15
  endloop
endfacet
facet normal -2.4951062589705005e-18 3.047954855859594e-17 -1.0
  outer loop
    vertex 10.860688002881226 -1.3174040124823667 1.9739765377835285e-15
    vertex 18.0 0.0 0.0
    vertex 12.781070515068626 -2.1381507711625787 1.9739765377835285e-15
  endloop
endfacet
facet normal -2.4951062589705005e-18 3.047954855859594e-17 -1.0
  outer loop
    vertex 12.781070515068626 -2.1381507711625787 1.9739765377835285e-15
    vertex 18.0 0.0 0.0
    vertex 14.423592687591714 -3.427962830250763 1.9739765377835285e-15
  endloop
endfacet
facet normal -2.4951062589705005e-18 3.047954855859594e-17 -1.0
  outer loop
    vertex 14.423592687591714 -3.427962830250763 1.9739765377835285e-15
    vertex 18.0 0.0 0.0
    vertex 15.676319348789278 -5.098941629435261 1.9739765377835285e-15
  endloop
endfacet
facet normal -2.4951062589705005e-18 3.047954855859594e-17 -1.0
  outer loop
    vertex 15.676319348789278 -5.098941629435261 1.9739765377835285e-15
    vertex 18.0 0.0 0.0
    vertex 16.453879246929386 -7.037212724974684 1.9739765377835285e-15
  endloop
endfacet
facet normal -2.4951062589705005e-18 3.047954855859594e-17 -1.0
  outer loop
    vertex 16.453879246929386 -7.037212724974684 1.9739765377835285e-15
    vertex 18.0 0.0 0.0
    vertex 16.703282959932285 -9.110686144852462 1.9739765377835285e-15
  endloop
endfacet
facet normal -2.4951062589705005e-18 3.047954855859594e-17 -1.0
  outer loop
    vertex 10.687725324423628 -16.771249346128908 1.9739765377835285e-15
    vertex 10.0 -18.0 0.0
    vertex 10.0 -16.853971047691637 9.869882688917642e-16
  endloop
endfacet
facet normal -2.4951062589705005e-18 3.047954855859594e-17 -1.0
  outer loop
    vertex 10.0 -18.0 0.0
    vertex 10.687725324423628 -16.771249346128908 1.9739765377835285e-15
    vertex 18.0 -18.0 0.0
  endloop
endfacet
facet normal -2.4951062589705005e-18 3.047954855859594e-17 -1.0
  outer loop
    vertex 18.0 -18.0 0.0
    vertex 10.687725324423628 -16.771249346128908 1.9739765377835285e-15
    vertex 12.625996419963052 -15.9936894479888 1.9739765377835285e-15
  endloop
endfacet
facet normal -2.4951062589705005e-18 3.047954855859594e-17 -1.0
  outer loop
    vertex 18.0 -18.0 0.0
    vertex 12.625996419963052 -15.9936894479888 1.9739765377835285e-15
    vertex 14.296975219147553 -14.740962786791242 1.9739765377835285e-15
  endloop
endfacet
facet normal -2.4951062589705005e-18 3.047954855859594e-17 -1.0
  outer loop
    vertex 18.0 -18.0 0.0
    vertex 14.296975219147553 -14.740962786791242 1.9739765377835285e-15
    vertex 15.586787278235736 -13.098440614268148 1.9739765377835285e-15
  endloop
endfacet
facet normal -2.4951062589705005e-18 3.047954855859594e-17 -1.0
  outer loop
    vertex 18.0 -18.0 0.0
    vertex 15.586787278235736 -13.098440614268148 1.9739765377835285e-15
    vertex 16.407534036915948 -11.17805810208075 1.9739765377835285e-15
  endloop
endfacet
facet normal -2.4951062589705005e-18 3.047954855859594e-17 -1.0
  outer loop
    vertex 18.0 -18.0 0.0
    vertex 16.407534036915948 -11.17805810208075 1.9739765377835285e-15
    vertex 16.703282959932285 -9.110686144852462 1.9739765377835285e-15
  endloop
endfacet
facet normal -2.4951062589705005e-18 3.047954855859594e-17 -1.0
  outer loop
    vertex 18.0 -18.0 0.0
    vertex 16.703282959932285 -9.110686144852462 1.9739765377835285e-15
    vertex 18.0 0.0 0.0
  endloop
endfacet
facet normal -2.4951062589705005e-18 3.047954855859594e-17 -1.0
  outer loop
    vertex 0.0 -18.0 0.0
    vertex 4.626497435130163 -15.904157377435256 1.9739765377835285e-15
    vertex 7.999999999999999 -18.0 0.0
  endloop
endfacet
facet normal -2.4951062589705005e-18 3.047954855859594e-17 -1.0
  outer loop
    vertex 4.626497435130163 -15.904157377435256 1.9739765377835285e-15
    vertex 0.0 -18.0 0.0
    vertex 2.983975262607073 -14.614345318347073 1.9739765377835285e-15
  endloop
endfacet
facet normal -2.4951062589705005e-18 3.047954855859594e-17 -1.0
  outer loop
    vertex 2.983975262607073 -14.614345318347073 1.9739765377835285e-15
    vertex 0.0 -18.0 0.0
    vertex 1.7312486014095148 -12.943366519162574 1.9739765377835285e-15
  endloop
endfacet
facet normal -2.4951062589705005e-18 3.047954855859594e-17 -1.0
  outer loop
    vertex 1.7312486014095148 -12.943366519162574 1.9739765377835285e-15
    vertex 0.0 -18.0 0.0
    vertex 0.9536887032694042 -11.005095423623152 1.9739765377835285e-15
  endloop
endfacet
facet normal -2.4951062589705005e-18 3.047954855859594e-17 -1.0
  outer loop
    vertex 0.9536887032694042 -11.005095423623152 1.9739765377835285e-15
    vertex 0.0 -18.0 0.0
    vertex 0.7042849902665064 -8.931622003745376 1.9739765377835285e-15
  endloop
endfacet
facet normal -2.4951062589705005e-18 3.047954855859594e-17 -1.0
  outer loop
    vertex 7.999999999999999 -18.0 0.0
    vertex 4.626497435130163 -15.904157377435256 1.9739765377835285e-15
    vertex 6.54687994731756 -16.72490413611547 1.9739765377835285e-15
  endloop
endfacet
facet normal -2.4951062589705005e-18 3.047954855859594e-17 -1.0
  outer loop
    vertex 7.999999999999999 -18.0 0.0
    vertex 6.54687994731756 -16.72490413611547 1.9739765377835285e-15
    vertex 7.999999999999999 -16.932780947587 9.869882688917642e-16
  endloop
endfacet
facet normal -0.37231986015364116 0.9281044778122629 -2.336795614596956e-32
  outer loop
    vertex 10.687725324423628 -16.771249346128908 4.000000000000002
    vertex 12.625996419963052 -15.9936894479888 1.9739765377835285e-15
    vertex 10.687725324423628 -16.771249346128908 1.9739765377835285e-15
  endloop
endfacet
facet normal -0.37231986015364116 0.9281044778122629 -2.336795614596956e-32
  outer loop
    vertex 12.625996419963052 -15.9936894479888 1.9739765377835285e-15
    vertex 10.687725324423628 -16.771249346128908 4.000000000000002
    vertex 12.625996419963052 -15.9936894479888 4.000000000000002
  endloop
endfacet
facet normal -0.3929990720255837 -0.9195388677957177 2.567672835406403e-32
  outer loop
    vertex 12.781070515068626 -2.1381507711625787 4.000000000000002
    vertex 10.860688002881226 -1.3174040124823667 1.9739765377835285e-15
    vertex 12.781070515068626 -2.1381507711625787 1.9739765377835285e-15
  endloop
endfacet
facet normal -0.3929990720255837 -0.9195388677957177 2.567672835406403e-32
  outer loop
    vertex 10.860688002881226 -1.3174040124823667 1.9739765377835285e-15
    vertex 12.781070515068626 -2.1381507711625787 4.000000000000002
    vertex 10.860688002881226 -1.3174040124823667 4.000000000000002
  endloop
endfacet
facet normal 0.37231986015364116 -0.9281044778122629 2.336795614596956e-32
  outer loop
    vertex 6.719842625775163 -1.271058802468928 4.000000000000002
    vertex 4.7815715302357376 -2.0486187006090386 1.9739765377835285e-15
    vertex 6.719842625775163 -1.271058802468928 1.9739765377835285e-15
  endloop
endfacet
facet normal 0.37231986015364116 -0.9281044778122629 2.336795614596956e-32
  outer loop
    vertex 4.7815715302357376 -2.0486187006090386 1.9739765377835285e-15
    vertex 6.719842625775163 -1.271058802468928 4.000000000000002
    vertex 4.7815715302357376 -2.0486187006090386 4.000000000000002
  endloop
endfacet
facet normal 0.392999072025585 0.919538867795717 -2.567672835406402e-32
  outer loop
    vertex 4.626497435130163 -15.904157377435256 4.000000000000002
    vertex 6.54687994731756 -16.72490413611547 1.9739765377835285e-15
    vertex 4.626497435130163 -15.904157377435256 1.9739765377835285e-15
  endloop
endfacet
facet normal 0.392999072025585 0.919538867795717 -2.567672835406402e-32
  outer loop
    vertex 6.54687994731756 -16.72490413611547 1.9739765377835285e-15
    vertex 4.626497435130163 -15.904157377435256 4.000000000000002
    vertex 6.54687994731756 -16.72490413611547 4.000000000000002
  endloop
endfacet
endsolid CoffeeIdeas
