solid CoffeeIdeas
facet normal -0.9765956038317187 -0.2150837664180188 0.0
  outer loop
    vertex -24.605715885741354 -16.35934708719337 -3.9999999999999996
    vertex -24.1565308451191 -18.3988879753053 -5.000000000000002
    vertex -24.1565308451191 -18.3988879753053 -3.9999999999999996
  endloop
endfacet
facet normal -0.9765956038317187 -0.2150837664180188 0.0
  outer loop
    vertex -24.1565308451191 -18.3988879753053 -5.000000000000002
    vertex -24.605715885741354 -16.35934708719337 -3.9999999999999996
    vertex -24.605715885741354 -16.35934708719337 -5.000000000000002
  endloop
endfacet
facet normal 0.21508376641801516 -0.9765956038317195 0.0
  outer loop
    vertex -13.909477817060022 -23.19450099557139 -3.9999999999999996
    vertex -15.949018705171946 -23.643686036193635 -5.000000000000002
    vertex -13.909477817060022 -23.19450099557139 -5.000000000000002
  endloop
endfacet
facet normal 0.21508376641801516 -0.9765956038317195 0.0
  outer loop
    vertex -15.949018705171946 -23.643686036193635 -5.000000000000002
    vertex -13.909477817060022 -23.19450099557139 -3.9999999999999996
    vertex -15.949018705171946 -23.643686036193635 -3.9999999999999996
  endloop
endfacet
facet normal -0.6745658075754986 0.7382147189334656 -0.0
  outer loop
    vertex -22.7564071000156 -10.522362504109418 -3.9999999999999996
    vertex -21.21470539916471 -9.11358640387464 -5.000000000000002
    vertex -22.7564071000156 -10.522362504109418 -5.000000000000002
  endloop
endfacet
facet normal -0.6745658075754986 0.7382147189334656 -0.0
  outer loop
    vertex -21.21470539916471 -9.11358640387464 -5.000000000000002
    vertex -22.7564071000156 -10.522362504109418 -3.9999999999999996
    vertex -21.21470539916471 -9.11358640387464 -3.9999999999999996
  endloop
endfacet
facet normal 0.6745658075755031 -0.7382147189334615 0.0
  outer loop
    vertex -10.513988541897444 -20.823973438708208 -3.9999999999999996
    vertex -12.055690242748327 -22.232749538942993 -5.000000000000002
    vertex -10.513988541897444 -20.823973438708208 -5.000000000000002
  endloop
endfacet
facet normal 0.6745658075755031 -0.7382147189334615 0.0
  outer loop
    vertex -12.055690242748327 -22.232749538942993 -5.000000000000002
    vertex -10.513988541897444 -20.823973438708208 -3.9999999999999996
    vertex -12.055690242748327 -22.232749538942993 -3.9999999999999996
  endloop
endfacet
facet normal -0.4605165064337298 0.8876511405400618 -0.0
  outer loop
    vertex -21.21470539916471 -9.11358640387464 -3.9999999999999996
    vertex -19.360917824853036 -8.151834947246234 -5.000000000000002
    vertex -21.21470539916471 -9.11358640387464 -5.000000000000002
  endloop
endfacet
facet normal -0.4605165064337298 0.8876511405400618 -0.0
  outer loop
    vertex -19.360917824853036 -8.151834947246234 -5.000000000000002
    vertex -21.21470539916471 -9.11358640387464 -3.9999999999999996
    vertex -19.360917824853036 -8.151834947246234 -3.9999999999999996
  endloop
endfacet
facet normal -0.8876511405400629 -0.4605165064337277 0.0
  outer loop
    vertex -24.1565308451191 -18.3988879753053 -3.9999999999999996
    vertex -23.194779388490677 -20.252675549617017 -5.000000000000002
    vertex -23.194779388490677 -20.252675549617017 -3.9999999999999996
  endloop
endfacet
facet normal -0.8876511405400629 -0.4605165064337277 0.0
  outer loop
    vertex -23.194779388490677 -20.252675549617017 -5.000000000000002
    vertex -24.1565308451191 -18.3988879753053 -3.9999999999999996
    vertex -24.1565308451191 -18.3988879753053 -5.000000000000002
  endloop
endfacet
facet normal 0.46051650643372155 -0.8876511405400662 0.0
  outer loop
    vertex -12.055690242748327 -22.232749538942993 -3.9999999999999996
    vertex -13.909477817060022 -23.19450099557139 -5.000000000000002
    vertex -12.055690242748327 -22.232749538942993 -5.000000000000002
  endloop
endfacet
facet normal 0.46051650643372155 -0.8876511405400662 0.0
  outer loop
    vertex -13.909477817060022 -23.19450099557139 -5.000000000000002
    vertex -12.055690242748327 -22.232749538942993 -3.9999999999999996
    vertex -13.909477817060022 -23.19450099557139 -3.9999999999999996
  endloop
endfacet
facet normal 0.9765956038317204 0.21508376641801163 -0.0
  outer loop
    vertex -9.11386479679396 -12.94744796751229 -5.000000000000002
    vertex -8.664679756171715 -14.986988855624253 -3.9999999999999996
    vertex -8.664679756171715 -14.986988855624253 -5.000000000000002
  endloop
endfacet
facet normal 0.9765956038317204 0.21508376641801163 -0.0
  outer loop
    vertex -8.664679756171715 -14.986988855624253 -3.9999999999999996
    vertex -9.11386479679396 -12.94744796751229 -5.000000000000002
    vertex -9.11386479679396 -12.94744796751229 -3.9999999999999996
  endloop
endfacet
facet normal 0.9532984853514811 -0.3020297962562175 -0.0
  outer loop
    vertex -8.758672349760655 -17.073291716512305 -5.000000000000002
    vertex -9.389437137637806 -19.064178457985438 -3.9999999999999996
    vertex -9.389437137637806 -19.064178457985438 -5.000000000000002
  endloop
endfacet
facet normal 0.9532984853514811 -0.3020297962562175 -0.0
  outer loop
    vertex -9.389437137637806 -19.064178457985438 -3.9999999999999996
    vertex -8.758672349760655 -17.073291716512305 -5.000000000000002
    vertex -8.758672349760655 -17.073291716512305 -3.9999999999999996
  endloop
endfacet
facet normal -0.21508376641801197 0.9765956038317202 -0.0
  outer loop
    vertex -19.360917824853036 -8.151834947246234 -3.9999999999999996
    vertex -17.321376936741082 -7.70264990662399 -5.000000000000002
    vertex -19.360917824853036 -8.151834947246234 -5.000000000000002
  endloop
endfacet
facet normal -0.21508376641801197 0.9765956038317202 -0.0
  outer loop
    vertex -17.321376936741082 -7.70264990662399 -5.000000000000002
    vertex -19.360917824853036 -8.151834947246234 -3.9999999999999996
    vertex -17.321376936741082 -7.70264990662399 -3.9999999999999996
  endloop
endfacet
facet normal -0.7382147189334675 -0.6745658075754964 0.0
  outer loop
    vertex -23.194779388490677 -20.252675549617017 -3.9999999999999996
    vertex -21.7860032882559 -21.794377250467914 -5.000000000000002
    vertex -21.7860032882559 -21.794377250467914 -3.9999999999999996
  endloop
endfacet
facet normal -0.7382147189334675 -0.6745658075754964 0.0
  outer loop
    vertex -21.7860032882559 -21.794377250467914 -5.000000000000002
    vertex -23.194779388490677 -20.252675549617017 -3.9999999999999996
    vertex -23.194779388490677 -20.252675549617017 -5.000000000000002
  endloop
endfacet
facet normal 0.9989866906227896 -0.04500657683635669 -0.0
  outer loop
    vertex -8.664679756171715 -14.986988855624253 -5.000000000000002
    vertex -8.758672349760655 -17.073291716512305 -3.9999999999999996
    vertex -8.758672349760655 -17.073291716512305 -5.000000000000002
  endloop
endfacet
facet normal 0.9989866906227896 -0.04500657683635669 -0.0
  outer loop
    vertex -8.758672349760655 -17.073291716512305 -3.9999999999999996
    vertex -8.664679756171715 -14.986988855624253 -5.000000000000002
    vertex -8.664679756171715 -14.986988855624253 -3.9999999999999996
  endloop
endfacet
facet normal -0.5384701841890542 -0.8426445637037041 0.0
  outer loop
    vertex -20.026208307533167 -22.918928654727544 -3.9999999999999996
    vertex -21.7860032882559 -21.794377250467914 -5.000000000000002
    vertex -20.026208307533167 -22.918928654727544 -5.000000000000002
  endloop
endfacet
facet normal -0.5384701841890542 -0.8426445637037041 0.0
  outer loop
    vertex -21.7860032882559 -21.794377250467914 -5.000000000000002
    vertex -20.026208307533167 -22.918928654727544 -3.9999999999999996
    vertex -21.7860032882559 -21.794377250467914 -3.9999999999999996
  endloop
endfacet
facet normal -0.30202979625621335 -0.9532984853514824 0.0
  outer loop
    vertex -18.035321566060006 -23.549693442604692 -3.9999999999999996
    vertex -20.026208307533167 -22.918928654727544 -5.000000000000002
    vertex -18.035321566060006 -23.549693442604692 -5.000000000000002
  endloop
endfacet
facet normal -0.30202979625621335 -0.9532984853514824 0.0
  outer loop
    vertex -20.026208307533167 -22.918928654727544 -5.000000000000002
    vertex -18.035321566060006 -23.549693442604692 -3.9999999999999996
    vertex -20.026208307533167 -22.918928654727544 -3.9999999999999996
  endloop
endfacet
facet normal 0.7382147189334667 0.6745658075754973 -0.0
  outer loop
    vertex -11.484392353657144 -9.551958692349718 -5.000000000000002
    vertex -10.075616253422362 -11.093660393200617 -3.9999999999999996
    vertex -10.075616253422362 -11.093660393200617 -5.000000000000002
  endloop
endfacet
facet normal 0.7382147189334667 0.6745658075754973 -0.0
  outer loop
    vertex -10.075616253422362 -11.093660393200617 -3.9999999999999996
    vertex -11.484392353657144 -9.551958692349718 -5.000000000000002
    vertex -11.484392353657144 -9.551958692349718 -3.9999999999999996
  endloop
endfacet
facet normal -0.9989866906227896 0.045006576836356886 0.0
  outer loop
    vertex -24.511723292152414 -14.273044226305329 -3.9999999999999996
    vertex -24.605715885741354 -16.35934708719337 -5.000000000000002
    vertex -24.605715885741354 -16.35934708719337 -3.9999999999999996
  endloop
endfacet
facet normal -0.9989866906227896 0.045006576836356886 0.0
  outer loop
    vertex -24.605715885741354 -16.35934708719337 -5.000000000000002
    vertex -24.511723292152414 -14.273044226305329 -3.9999999999999996
    vertex -24.511723292152414 -14.273044226305329 -5.000000000000002
  endloop
endfacet
facet normal -0.0 -0.0 1.0
  outer loop
    vertex -24.1565308451191 -18.3988879753053 -3.9999999999999996
    vertex -24.511723292152414 -14.273044226305329 -3.9999999999999996
    vertex -24.605715885741354 -16.35934708719337 -3.9999999999999996
  endloop
endfacet
facet normal -0.0 -0.0 1.0
  outer loop
    vertex -24.511723292152414 -14.273044226305329 -3.9999999999999996
    vertex -24.1565308451191 -18.3988879753053 -3.9999999999999996
    vertex -23.880958504275256 -12.282157484832158 -3.9999999999999996
  endloop
endfacet
facet normal -0.0 -0.0 1.0
  outer loop
    vertex -23.880958504275256 -12.282157484832158 -3.9999999999999996
    vertex -24.1565308451191 -18.3988879753053 -3.9999999999999996
    vertex -23.194779388490677 -20.252675549617017 -3.9999999999999996
  endloop
endfacet
facet normal -0.0 -0.0 1.0
  outer loop
    vertex -23.880958504275256 -12.282157484832158 -3.9999999999999996
    vertex -23.194779388490677 -20.252675549617017 -3.9999999999999996
    vertex -22.7564071000156 -10.522362504109418 -3.9999999999999996
  endloop
endfacet
facet normal -0.0 -0.0 1.0
  outer loop
    vertex -22.7564071000156 -10.522362504109418 -3.9999999999999996
    vertex -23.194779388490677 -20.252675549617017 -3.9999999999999996
    vertex -21.7860032882559 -21.794377250467914 -3.9999999999999996
  endloop
endfacet
facet normal -0.0 -0.0 1.0
  outer loop
    vertex -22.7564071000156 -10.522362504109418 -3.9999999999999996
    vertex -21.7860032882559 -21.794377250467914 -3.9999999999999996
    vertex -21.21470539916471 -9.11358640387464 -3.9999999999999996
  endloop
endfacet
facet normal -0.0 -0.0 1.0
  outer loop
    vertex -21.21470539916471 -9.11358640387464 -3.9999999999999996
    vertex -21.7860032882559 -21.794377250467914 -3.9999999999999996
    vertex -20.026208307533167 -22.918928654727544 -3.9999999999999996
  endloop
endfacet
facet normal -0.0 -0.0 1.0
  outer loop
    vertex -21.21470539916471 -9.11358640387464 -3.9999999999999996
    vertex -20.026208307533167 -22.918928654727544 -3.9999999999999996
    vertex -19.360917824853036 -8.151834947246234 -3.9999999999999996
  endloop
endfacet
facet normal -0.0 -0.0 1.0
  outer loop
    vertex -19.360917824853036 -8.151834947246234 -3.9999999999999996
    vertex -20.026208307533167 -22.918928654727544 -3.9999999999999996
    vertex -18.035321566060006 -23.549693442604692 -3.9999999999999996
  endloop
endfacet
facet normal -0.0 -0.0 1.0
  outer loop
    vertex -19.360917824853036 -8.151834947246234 -3.9999999999999996
    vertex -18.035321566060006 -23.549693442604692 -3.9999999999999996
    vertex -17.321376936741082 -7.70264990662399 -3.9999999999999996
  endloop
endfacet
facet normal -0.0 -0.0 1.0
  outer loop
    vertex -17.321376936741082 -7.70264990662399 -3.9999999999999996
    vertex -18.035321566060006 -23.549693442604692 -3.9999999999999996
    vertex -15.949018705171946 -23.643686036193635 -3.9999999999999996
  endloop
endfacet
facet normal -0.0 -0.0 1.0
  outer loop
    vertex -17.321376936741082 -7.70264990662399 -3.9999999999999996
    vertex -15.949018705171946 -23.643686036193635 -3.9999999999999996
    vertex -15.235074075853023 -7.796642500212931 -3.9999999999999996
  endloop
endfacet
facet normal -0.0 -0.0 1.0
  outer loop
    vertex -15.235074075853023 -7.796642500212931 -3.9999999999999996
    vertex -15.949018705171946 -23.643686036193635 -3.9999999999999996
    vertex -13.909477817060022 -23.19450099557139 -3.9999999999999996
  endloop
endfacet
facet normal -0.0 -0.0 1.0
  outer loop
    vertex -15.235074075853023 -7.796642500212931 -3.9999999999999996
    vertex -13.909477817060022 -23.19450099557139 -3.9999999999999996
    vertex -13.244187334379895 -8.42740728809008 -3.9999999999999996
  endloop
endfacet
facet normal -0.0 -0.0 1.0
  outer loop
    vertex -13.244187334379895 -8.42740728809008 -3.9999999999999996
    vertex -13.909477817060022 -23.19450099557139 -3.9999999999999996
    vertex -12.055690242748327 -22.232749538942993 -3.9999999999999996
  endloop
endfacet
facet normal -0.0 -0.0 1.0
  outer loop
    vertex -13.244187334379895 -8.42740728809008 -3.9999999999999996
    vertex -12.055690242748327 -22.232749538942993 -3.9999999999999996
    vertex -11.484392353657144 -9.551958692349718 -3.9999999999999996
  endloop
endfacet
facet normal -0.0 -0.0 1.0
  outer loop
    vertex -11.484392353657144 -9.551958692349718 -3.9999999999999996
    vertex -12.055690242748327 -22.232749538942993 -3.9999999999999996
    vertex -10.513988541897444 -20.823973438708208 -3.9999999999999996
  endloop
endfacet
facet normal -0.0 -0.0 1.0
  outer loop
    vertex -11.484392353657144 -9.551958692349718 -3.9999999999999996
    vertex -10.513988541897444 -20.823973438708208 -3.9999999999999996
    vertex -10.075616253422362 -11.093660393200617 -3.9999999999999996
  endloop
endfacet
facet normal -0.0 -0.0 1.0
  outer loop
    vertex -10.075616253422362 -11.093660393200617 -3.9999999999999996
    vertex -10.513988541897444 -20.823973438708208 -3.9999999999999996
    vertex -9.389437137637806 -19.064178457985438 -3.9999999999999996
  endloop
endfacet
facet normal -0.0 -0.0 1.0
  outer loop
    vertex -10.075616253422362 -11.093660393200617 -3.9999999999999996
    vertex -9.389437137637806 -19.064178457985438 -3.9999999999999996
    vertex -9.11386479679396 -12.94744796751229 -3.9999999999999996
  endloop
endfacet
facet normal -0.0 -0.0 1.0
  outer loop
    vertex -9.11386479679396 -12.94744796751229 -3.9999999999999996
    vertex -9.389437137637806 -19.064178457985438 -3.9999999999999996
    vertex -8.758672349760655 -17.073291716512305 -3.9999999999999996
  endloop
endfacet
facet normal -0.0 -0.0 1.0
  outer loop
    vertex -9.11386479679396 -12.94744796751229 -3.9999999999999996
    vertex -8.758672349760655 -17.073291716512305 -3.9999999999999996
    vertex -8.664679756171715 -14.986988855624253 -3.9999999999999996
  endloop
endfacet
facet normal 0.0 0.0 -1.0
  outer loop
    vertex -24.511723292152414 -14.273044226305329 -5.000000000000002
    vertex -24.1565308451191 -18.3988879753053 -5.000000000000002
    vertex -24.605715885741354 -16.35934708719337 -5.000000000000002
  endloop
endfacet
facet normal 0.0 0.0 -1.0
  outer loop
    vertex -24.1565308451191 -18.3988879753053 -5.000000000000002
    vertex -24.511723292152414 -14.273044226305329 -5.000000000000002
    vertex -23.880958504275256 -12.282157484832158 -5.000000000000002
  endloop
endfacet
facet normal 0.0 0.0 -1.0
  outer loop
    vertex -24.1565308451191 -18.3988879753053 -5.000000000000002
    vertex -23.880958504275256 -12.282157484832158 -5.000000000000002
    vertex -23.194779388490677 -20.252675549617017 -5.000000000000002
  endloop
endfacet
facet normal 0.0 0.0 -1.0
  outer loop
    vertex -23.194779388490677 -20.252675549617017 -5.000000000000002
    vertex -23.880958504275256 -12.282157484832158 -5.000000000000002
    vertex -22.7564071000156 -10.522362504109418 -5.000000000000002
  endloop
endfacet
facet normal 0.0 0.0 -1.0
  outer loop
    vertex -23.194779388490677 -20.252675549617017 -5.000000000000002
    vertex -22.7564071000156 -10.522362504109418 -5.000000000000002
    vertex -21.7860032882559 -21.794377250467914 -5.000000000000002
  endloop
endfacet
facet normal 0.0 0.0 -1.0
  outer loop
    vertex -21.7860032882559 -21.794377250467914 -5.000000000000002
    vertex -22.7564071000156 -10.522362504109418 -5.000000000000002
    vertex -21.21470539916471 -9.11358640387464 -5.000000000000002
  endloop
endfacet
facet normal 0.0 0.0 -1.0
  outer loop
    vertex -21.7860032882559 -21.794377250467914 -5.000000000000002
    vertex -21.21470539916471 -9.11358640387464 -5.000000000000002
    vertex -20.026208307533167 -22.918928654727544 -5.000000000000002
  endloop
endfacet
facet normal 0.0 0.0 -1.0
  outer loop
    vertex -20.026208307533167 -22.918928654727544 -5.000000000000002
    vertex -21.21470539916471 -9.11358640387464 -5.000000000000002
    vertex -19.360917824853036 -8.151834947246234 -5.000000000000002
  endloop
endfacet
facet normal 0.0 0.0 -1.0
  outer loop
    vertex -20.026208307533167 -22.918928654727544 -5.000000000000002
    vertex -19.360917824853036 -8.151834947246234 -5.000000000000002
    vertex -18.035321566060006 -23.549693442604692 -5.000000000000002
  endloop
endfacet
facet normal 0.0 0.0 -1.0
  outer loop
    vertex -18.035321566060006 -23.549693442604692 -5.000000000000002
    vertex -19.360917824853036 -8.151834947246234 -5.000000000000002
    vertex -17.321376936741082 -7.70264990662399 -5.000000000000002
  endloop
endfacet
facet normal 0.0 0.0 -1.0
  outer loop
    vertex -18.035321566060006 -23.549693442604692 -5.000000000000002
    vertex -17.321376936741082 -7.70264990662399 -5.000000000000002
    vertex -15.949018705171946 -23.643686036193635 -5.000000000000002
  endloop
endfacet
facet normal 0.0 0.0 -1.0
  outer loop
    vertex -15.949018705171946 -23.643686036193635 -5.000000000000002
    vertex -17.321376936741082 -7.70264990662399 -5.000000000000002
    vertex -15.235074075853023 -7.796642500212931 -5.000000000000002
  endloop
endfacet
facet normal 0.0 0.0 -1.0
  outer loop
    vertex -15.949018705171946 -23.643686036193635 -5.000000000000002
    vertex -15.235074075853023 -7.796642500212931 -5.000000000000002
    vertex -13.909477817060022 -23.19450099557139 -5.000000000000002
  endloop
endfacet
facet normal 0.0 0.0 -1.0
  outer loop
    vertex -13.909477817060022 -23.19450099557139 -5.000000000000002
    vertex -15.235074075853023 -7.796642500212931 -5.000000000000002
    vertex -13.244187334379895 -8.42740728809008 -5.000000000000002
  endloop
endfacet
facet normal 0.0 0.0 -1.0
  outer loop
    vertex -13.909477817060022 -23.19450099557139 -5.000000000000002
    vertex -13.244187334379895 -8.42740728809008 -5.000000000000002
    vertex -12.055690242748327 -22.232749538942993 -5.000000000000002
  endloop
endfacet
facet normal 0.0 0.0 -1.0
  outer loop
    vertex -12.055690242748327 -22.232749538942993 -5.000000000000002
    vertex -13.244187334379895 -8.42740728809008 -5.000000000000002
    vertex -11.484392353657144 -9.551958692349718 -5.000000000000002
  endloop
endfacet
facet normal 0.0 0.0 -1.0
  outer loop
    vertex -12.055690242748327 -22.232749538942993 -5.000000000000002
    vertex -11.484392353657144 -9.551958692349718 -5.000000000000002
    vertex -10.513988541897444 -20.823973438708208 -5.000000000000002
  endloop
endfacet
facet normal 0.0 0.0 -1.0
  outer loop
    vertex -10.513988541897444 -20.823973438708208 -5.000000000000002
    vertex -11.484392353657144 -9.551958692349718 -5.000000000000002
    vertex -10.075616253422362 -11.093660393200617 -5.000000000000002
  endloop
endfacet
facet normal 0.0 0.0 -1.0
  outer loop
    vertex -10.513988541897444 -20.823973438708208 -5.000000000000002
    vertex -10.075616253422362 -11.093660393200617 -5.000000000000002
    vertex -9.389437137637806 -19.064178457985438 -5.000000000000002
  endloop
endfacet
facet normal 0.0 0.0 -1.0
  outer loop
    vertex -9.389437137637806 -19.064178457985438 -5.000000000000002
    vertex -10.075616253422362 -11.093660393200617 -5.000000000000002
    vertex -9.11386479679396 -12.94744796751229 -5.000000000000002
  endloop
endfacet
facet normal 0.0 0.0 -1.0
  outer loop
    vertex -9.389437137637806 -19.064178457985438 -5.000000000000002
    vertex -9.11386479679396 -12.94744796751229 -5.000000000000002
    vertex -8.758672349760655 -17.073291716512305 -5.000000000000002
  endloop
endfacet
facet normal 0.0 0.0 -1.0
  outer loop
    vertex -8.758672349760655 -17.073291716512305 -5.000000000000002
    vertex -9.11386479679396 -12.94744796751229 -5.000000000000002
    vertex -8.664679756171715 -14.986988855624253 -5.000000000000002
  endloop
endfacet
facet normal 0.8876511405400623 0.46051650643372904 -0.0
  outer loop
    vertex -10.075616253422362 -11.093660393200617 -5.000000000000002
    vertex -9.11386479679396 -12.94744796751229 -3.9999999999999996
    vertex -9.11386479679396 -12.94744796751229 -5.000000000000002
  endloop
endfacet
facet normal 0.8876511405400623 0.46051650643372904 -0.0
  outer loop
    vertex -9.11386479679396 -12.94744796751229 -3.9999999999999996
    vertex -10.075616253422362 -11.093660393200617 -5.000000000000002
    vertex -10.075616253422362 -11.093660393200617 -3.9999999999999996
  endloop
endfacet
facet normal -0.045006576836356504 -0.9989866906227898 0.0
  outer loop
    vertex -15.949018705171946 -23.643686036193635 -3.9999999999999996
    vertex -18.035321566060006 -23.549693442604692 -5.000000000000002
    vertex -15.949018705171946 -23.643686036193635 -5.000000000000002
  endloop
endfacet
facet normal -0.045006576836356504 -0.9989866906227898 0.0
  outer loop
    vertex -18.035321566060006 -23.549693442604692 -5.000000000000002
    vertex -15.949018705171946 -23.643686036193635 -3.9999999999999996
    vertex -18.035321566060006 -23.549693442604692 -3.9999999999999996
  endloop
endfacet
facet normal 0.842644563703707 -0.53847018418905 -0.0
  outer loop
    vertex -9.389437137637806 -19.064178457985438 -5.000000000000002
    vertex -10.513988541897444 -20.823973438708208 -3.9999999999999996
    vertex -10.513988541897444 -20.823973438708208 -5.000000000000002
  endloop
endfacet
facet normal 0.842644563703707 -0.53847018418905 -0.0
  outer loop
    vertex -10.513988541897444 -20.823973438708208 -3.9999999999999996
    vertex -9.389437137637806 -19.064178457985438 -5.000000000000002
    vertex -9.389437137637806 -19.064178457985438 -3.9999999999999996
  endloop
endfacet
facet normal -0.8426445637036996 0.5384701841890616 0.0
  outer loop
    vertex -22.7564071000156 -10.522362504109418 -3.9999999999999996
    vertex -23.880958504275256 -12.282157484832158 -5.000000000000002
    vertex -23.880958504275256 -12.282157484832158 -3.9999999999999996
  endloop
endfacet
facet normal -0.8426445637036996 0.5384701841890616 0.0
  outer loop
    vertex -23.880958504275256 -12.282157484832158 -5.000000000000002
    vertex -22.7564071000156 -10.522362504109418 -3.9999999999999996
    vertex -22.7564071000156 -10.522362504109418 -5.000000000000002
  endloop
endfacet
facet normal -0.9532984853514814 0.302029796256216 0.0
  outer loop
    vertex -23.880958504275256 -12.282157484832158 -3.9999999999999996
    vertex -24.511723292152414 -14.273044226305329 -5.000000000000002
    vertex -24.511723292152414 -14.273044226305329 -3.9999999999999996
  endloop
endfacet
facet normal -0.9532984853514814 0.302029796256216 0.0
  outer loop
    vertex -24.511723292152414 -14.273044226305329 -5.000000000000002
    vertex -23.880958504275256 -12.282157484832158 -3.9999999999999996
    vertex -23.880958504275256 -12.282157484832158 -5.000000000000002
  endloop
endfacet
facet normal 0.30202979625621795 0.9532984853514809 -0.0
  outer loop
    vertex -15.235074075853023 -7.796642500212931 -3.9999999999999996
    vertex -13.244187334379895 -8.42740728809008 -5.000000000000002
    vertex -15.235074075853023 -7.796642500212931 -5.000000000000002
  endloop
endfacet
facet normal 0.30202979625621795 0.9532984853514809 -0.0
  outer loop
    vertex -13.244187334379895 -8.42740728809008 -5.000000000000002
    vertex -15.235074075853023 -7.796642500212931 -3.9999999999999996
    vertex -13.244187334379895 -8.42740728809008 -3.9999999999999996
  endloop
endfacet
facet normal 0.045006576836356504 0.9989866906227898 -0.0
  outer loop
    vertex -17.321376936741082 -7.70264990662399 -3.9999999999999996
    vertex -15.235074075853023 -7.796642500212931 -5.000000000000002
    vertex -17.321376936741082 -7.70264990662399 -5.000000000000002
  endloop
endfacet
facet normal 0.045006576836356504 0.9989866906227898 -0.0
  outer loop
    vertex -15.235074075853023 -7.796642500212931 -5.000000000000002
    vertex -17.321376936741082 -7.70264990662399 -3.9999999999999996
    vertex -15.235074075853023 -7.796642500212931 -3.9999999999999996
  endloop
endfacet
facet normal 0.5384701841890535 0.8426445637037048 -0.0
  outer loop
    vertex -13.244187334379895 -8.42740728809008 -3.9999999999999996
    vertex -11.484392353657144 -9.551958692349718 -5.000000000000002
    vertex -13.244187334379895 -8.42740728809008 -5.000000000000002
  endloop
endfacet
facet normal 0.5384701841890535 0.8426445637037048 -0.0
  outer loop
    vertex -11.484392353657144 -9.551958692349718 -5.000000000000002
    vertex -13.244187334379895 -8.42740728809008 -3.9999999999999996
    vertex -11.484392353657144 -9.551958692349718 -3.9999999999999996
  endloop
endfacet
endsolid CoffeeIdeas
